<?xml version="1.0" encoding="UTF-8"?>
<svg version="1.1" xmlns="http://www.w3.org/2000/svg" width="500" height="300">
<path d="M0 0 C0.66 0 1.32 0 2 0 C3.33984375 1.36328125 3.33984375 1.36328125 4.9375 3.3125 C9.64526987 8.85918064 14.82576459 13.89444913 20 19 C21.66744071 20.66589227 23.33402839 22.33263857 25 24 C25.77471146 24.77471146 26.54942291 25.54942291 27.34761047 26.34761047 C41.89840698 40.89840698 56.44920349 55.44920349 71 70 C69.47731243 73.19592247 67.88794528 75.35843813 65.3671875 77.86328125 C64.64273438 78.58580078 63.91828125 79.30832031 63.171875 80.05273438 C62.41390625 80.79845703 61.6559375 81.54417969 60.875 82.3125 C60.14023438 83.04662109 59.40546875 83.78074219 58.6484375 84.53710938 C54.48880374 88.66378829 50.23815624 92.62901271 45.78588867 96.43847656 C41.59732307 100.10082319 37.76599196 104.06033357 34.1875 108.31640625 C28.33145166 115.04082135 21.88500337 121.21952507 15.5625 127.5 C14.24520941 128.81226585 12.92815014 130.12476395 11.61132812 131.4375 C8.4102139 134.62768506 5.20598135 137.81470651 2 141 C-1.23048748 139.5800745 -3.38242488 137.86380613 -5.86328125 135.3671875 C-6.58580078 134.64273438 -7.30832031 133.91828125 -8.05273438 133.171875 C-9.17131836 132.03492188 -9.17131836 132.03492188 -10.3125 130.875 C-11.41368164 129.77285156 -11.41368164 129.77285156 -12.53710938 128.6484375 C-16.681869 124.47057864 -20.6450393 120.18864643 -24.48803711 115.73242188 C-26.28629351 113.6719621 -28.17317925 111.72757099 -30.125 109.8125 C-30.74632812 109.20019531 -31.36765625 108.58789062 -32.0078125 107.95703125 C-32.66523437 107.31121094 -33.32265625 106.66539062 -34 106 C-37.2689593 102.73752459 -40.52801743 99.46531236 -43.78422546 96.19012451 C-46.26439995 93.69654437 -48.74725689 91.2056422 -51.23022461 88.71484375 C-52.54133105 87.39866754 -53.85154458 86.0816013 -55.16088867 84.76367188 C-57.05674903 82.85573296 -58.95577617 80.95099731 -60.85546875 79.046875 C-61.44192673 78.45525574 -62.0283847 77.86363647 -62.63261414 77.25408936 C-65.53635677 74.2591503 -65.53635677 74.2591503 -69 72 C-67.54844106 68.66421487 -65.72074062 66.47501397 -63.1484375 63.91796875 C-62.37886719 63.15033203 -61.60929687 62.38269531 -60.81640625 61.59179688 C-59.60791016 60.40166992 -59.60791016 60.40166992 -58.375 59.1875 C-57.59253906 58.40568359 -56.81007813 57.62386719 -56.00390625 56.81835938 C-52.38041166 53.22190579 -48.72706501 49.71508826 -44.8515625 46.390625 C-40.94610951 43.02380512 -37.47727206 39.36362879 -34 35.5625 C-25.83978988 26.75116118 -17.35051294 18.28825943 -8.81054688 9.84790039 C-8.30043564 9.34198364 -7.7903244 8.83606689 -7.26475525 8.31481934 C-5.86612905 6.92794848 -4.46452672 5.54408085 -3.06274414 4.16040039 C-0.96527815 2.17573272 -0.96527815 2.17573272 0 0 Z " fill="#234D81" transform="translate(80,66)"/>
<path d="M0 0 C9.24 0 18.48 0 28 0 C31.33333333 11.66666667 34.66666667 23.33333333 38 35 C38.2673999 33.97527588 38.5347998 32.95055176 38.81030273 31.89477539 C39.80016929 28.10512692 40.79453286 24.31667078 41.7902832 20.52856445 C42.22120622 18.88663561 42.65089715 17.24438291 43.0793457 15.60180664 C43.69421496 13.24540019 44.31345757 10.89018129 44.93359375 8.53515625 C45.12529648 7.79660904 45.31699921 7.05806183 45.51451111 6.2971344 C46.88612829 1.11387171 46.88612829 1.11387171 48 0 C56.91 0 65.82 0 75 0 C75 21.78 75 43.56 75 66 C69.39 66 63.78 66 58 66 C57.505 45.21 57.505 45.21 57 24 C53.75283991 36.69952545 53.75283991 36.69952545 50.50805664 49.3996582 C50.10050933 50.99172128 49.69288137 52.58376371 49.28515625 54.17578125 C48.96895325 55.41587952 48.96895325 55.41587952 48.6463623 56.68103027 C48.44345581 57.47247437 48.24054932 58.26391846 48.03149414 59.0793457 C47.76835167 60.10859917 47.76835167 60.10859917 47.49989319 61.15864563 C47.0572588 62.78908746 46.53425329 64.39724014 46 66 C40.72 66 35.44 66 30 66 C27.08626938 57.77353658 24.95969236 49.38932775 22.8125 40.9375 C21.554375 36.008125 20.29625 31.07875 19 26 C18.67 39.2 18.34 52.4 18 66 C12.06 66 6.12 66 0 66 C0 44.22 0 22.44 0 0 Z " fill="#295285" transform="translate(261,120)"/>
<path d="M0 0 C6.93 0 13.86 0 21 0 C21 7.59 21 15.18 21 23 C27.93 23 34.86 23 42 23 C42 15.41 42 7.82 42 0 C49.26 0 56.52 0 64 0 C64 21.78 64 43.56 64 66 C56.74 66 49.48 66 42 66 C42 57.42 42 48.84 42 40 C35.07 40 28.14 40 21 40 C21 48.58 21 57.16 21 66 C14.07 66 7.14 66 0 66 C0 44.22 0 22.44 0 0 Z " fill="#254F82" transform="translate(420,120)"/>
<path d="M0 0 C7.92 0 15.84 0 24 0 C25.0621875 2.86042969 26.124375 5.72085938 27.21875 8.66796875 C28.27778818 11.51806187 29.33712324 14.36804448 30.39648438 17.21801758 C31.11814689 19.15996031 31.83951329 21.10201312 32.56054688 23.04418945 C33.61245088 25.8774253 34.66534757 28.7102897 35.71875 31.54296875 C36.06768311 32.48187958 36.41661621 33.42079041 36.77612305 34.38815308 C38.59913876 39.28193771 40.44208958 44.16711847 42.31640625 49.04150391 C42.6880188 50.00888992 43.05963135 50.97627594 43.44250488 51.97297668 C44.15454693 53.822368 44.8695166 55.67063548 45.58776855 57.5176239 C45.90491821 58.34107803 46.22206787 59.16453217 46.54882812 60.01293945 C46.82988403 60.73705521 47.11093994 61.46117096 47.4005127 62.20722961 C48 64 48 64 48 66 C40.74 66 33.48 66 26 66 C23 58 23 58 23 56 C15.41 56 7.82 56 0 56 C-0.66 58.97 -1.32 61.94 -2 65 C-3 66 -3 66 -5.04125977 66.11352539 C-5.91580811 66.10828857 -6.79035645 66.10305176 -7.69140625 66.09765625 C-8.63564453 66.09443359 -9.57988281 66.09121094 -10.55273438 66.08789062 C-11.54595703 66.07951172 -12.53917969 66.07113281 -13.5625 66.0625 C-14.55958984 66.05798828 -15.55667969 66.05347656 -16.58398438 66.04882812 C-19.05604849 66.03700007 -21.52799518 66.02051849 -24 66 C-23.35082612 62.2752865 -22.32222533 58.9071739 -20.99047852 55.37109375 C-20.57657364 54.26644775 -20.16266876 53.16180176 -19.73622131 52.02368164 C-19.28830734 50.8402417 -18.84039337 49.65680176 -18.37890625 48.4375 C-17.9189476 47.21345459 -17.45898895 45.98940918 -16.98509216 44.72827148 C-15.76452743 41.48043067 -14.53927503 38.23437749 -13.31311035 34.98864746 C-12.31538341 32.34529575 -11.32091246 29.70072516 -10.32663059 27.05607605 C-8.2674553 21.57907367 -6.20567009 16.10305345 -4.13891602 10.62890625 C-3.7733107 9.66025635 -3.40770538 8.69160645 -3.03102112 7.69360352 C-2.04568623 5.11935798 -1.02369344 2.5592336 0 0 Z M11 19 C8.03 29.395 8.03 29.395 5 40 C9.29 40 13.58 40 18 40 C16.10586705 32.96464905 14.13097381 25.96722642 12 19 C11.67 19 11.34 19 11 19 Z " fill="#295285" transform="translate(366,120)"/>
<path d="M0 0 C20.79 0 41.58 0 63 0 C63 5.61 63 11.22 63 17 C56.07 17 49.14 17 42 17 C42 33.17 42 49.34 42 66 C35.07 66 28.14 66 21 66 C21 49.83 21 33.66 21 17 C14.07 17 7.14 17 0 17 C0 11.39 0 5.78 0 0 Z " fill="#265083" transform="translate(155,120)"/>
<path d="M0 0 C7.26 0 14.52 0 22 0 C22 22.11 22 44.22 22 67 C14.74 67 7.48 67 0 67 C0 44.89 0 22.78 0 0 Z " fill="#254F83" transform="translate(226,120)"/>
<path d="M0 0 C6.99082125 5.8870661 13.48425939 12.19276284 19.97314453 18.62304688 C21.33343224 19.96662182 22.6990826 21.30478733 24.06982422 22.63769531 C26.058668 24.57209562 28.03084768 26.52214537 30 28.4765625 C30.6175415 29.07143463 31.23508301 29.66630676 31.87133789 30.27920532 C33.5625 31.97900391 33.5625 31.97900391 36 35 C35.56685049 38.64472512 34.06730141 40.2636423 31.4375 42.75 C30.47650391 43.67039062 30.47650391 43.67039062 29.49609375 44.609375 C29.00238281 45.06828125 28.50867188 45.5271875 28 46 C24.78475695 44.59155282 22.67816132 42.89655214 20.25 40.375 C19.63640625 39.74335938 19.0228125 39.11171875 18.390625 38.4609375 C17.93171875 37.97882813 17.4728125 37.49671875 17 37 C13.23511958 38.72154788 10.84936103 40.99234114 8 44 C3.67495164 42.34136495 0.90581175 39.128959 -2.25 35.875 C-2.80429687 35.31167969 -3.35859375 34.74835938 -3.9296875 34.16796875 C-5.29104485 32.78313972 -6.64614859 31.39216796 -8 30 C-5.33333333 27.33333333 -2.66666667 24.66666667 0 22 C-1.40844718 18.78475695 -3.10344786 16.67816132 -5.625 14.25 C-6.25664063 13.63640625 -6.88828125 13.0228125 -7.5390625 12.390625 C-8.02117188 11.93171875 -8.50328125 11.4728125 -9 11 C-7.59155282 7.78475695 -5.89655214 5.67816132 -3.375 3.25 C-2.74335937 2.63640625 -2.11171875 2.0228125 -1.4609375 1.390625 C-0.73777344 0.70226562 -0.73777344 0.70226562 0 0 Z " fill="#D5D5DB" transform="translate(54,142)"/>
<path d="M0 0 C2.47301485 1.07069225 3.91280311 2.39193479 5.7890625 4.3203125 C6.70945312 5.24650391 6.70945312 5.24650391 7.6484375 6.19140625 C9.0390625 7.8828125 9.0390625 7.8828125 9.0390625 9.8828125 C10.31107221 8.78000123 11.58162103 7.67550481 12.8515625 6.5703125 C13.55925781 5.95542969 14.26695313 5.34054688 14.99609375 4.70703125 C16.74042989 3.14946915 18.40684291 1.55622375 20.0390625 -0.1171875 C20.46316406 0.37910156 20.88726562 0.87539062 21.32421875 1.38671875 C25.38149534 6.08602592 29.58886444 10.55435238 34.0390625 14.8828125 C33.64074219 15.34171875 33.24242187 15.800625 32.83203125 16.2734375 C30.12764188 19.40552835 27.45914479 22.52158709 25.0390625 25.8828125 C25.6990625 25.8828125 26.3590625 25.8828125 27.0390625 25.8828125 C28.765625 27.4921875 28.765625 27.4921875 30.6640625 29.6328125 C31.29570313 30.32890625 31.92734375 31.025 32.578125 31.7421875 C34.0390625 33.8828125 34.0390625 33.8828125 34.0390625 37.8828125 C32.5078125 39.8046875 32.5078125 39.8046875 30.5390625 41.6328125 C29.889375 42.24640625 29.2396875 42.86 28.5703125 43.4921875 C28.065 43.95109375 27.5596875 44.41 27.0390625 44.8828125 C23.99324764 43.52168237 21.90067224 41.98951154 19.55566406 39.62646484 C18.89528137 38.96593109 18.23489868 38.30539734 17.55450439 37.62484741 C16.85331482 36.91333527 16.15212524 36.20182312 15.4296875 35.46875 C14.70287781 34.73911041 13.97606812 34.00947083 13.22723389 33.25772095 C10.90977052 30.9290737 8.599363 28.59356424 6.2890625 26.2578125 C4.71790806 24.67662597 3.14629879 23.09589125 1.57421875 21.515625 C-2.27612403 17.6432456 -6.12069867 13.76521079 -9.9609375 9.8828125 C-8.59330611 7.05445149 -7.26698757 4.84741918 -5.0859375 2.5703125 C-4.34730469 1.77173828 -4.34730469 1.77173828 -3.59375 0.95703125 C-1.9609375 -0.1171875 -1.9609375 -0.1171875 0 0 Z " fill="#D7D7DC" transform="translate(81.9609375,86.1171875)"/>
<path d="M0 0 C3.93089159 3.2633817 6.91174115 5.88232154 10 10 C-1.88 21.88 -13.76 33.76 -26 46 C-33 40 -33 40 -36 36 C-32.7 32.7 -29.4 29.4 -26 26 C-26.94875 24.906875 -27.8975 23.81375 -28.875 22.6875 C-30.76954348 20.50465642 -32.3889658 18.4165513 -34 16 C-29.38 11.38 -24.76 6.76 -20 2 C-17.69 3.98 -15.38 5.96 -13 8 C-12.01 8.66 -11.02 9.32 -10 10 C-6.7 6.7 -3.4 3.4 0 0 Z " fill="#D9D8DD" transform="translate(66,100)"/>
<path d="M0 0 C4.26615504 2.04066983 6.73398524 4.58553002 10 8 C8.59155282 11.21524305 6.89655214 13.32183868 4.375 15.75 C3.74335937 16.36359375 3.11171875 16.9771875 2.4609375 17.609375 C1.97882813 18.06828125 1.49671875 18.5271875 1 19 C2.72154788 22.76488042 4.99234114 25.15063897 8 28 C6.38989473 32.07376031 3.46177729 34.76507069 0.375 37.75 C-0.140625 38.25660156 -0.65625 38.76320312 -1.1875 39.28515625 C-2.45383339 40.52803902 -3.7263144 41.76465276 -5 43 C-8.76488042 41.27845212 -11.15063897 39.00765886 -14 36 C-17.21524305 37.40844718 -19.32183868 39.10344786 -21.75 41.625 C-22.36359375 42.25664062 -22.9771875 42.88828125 -23.609375 43.5390625 C-24.06828125 44.02117187 -24.5271875 44.50328125 -25 45 C-29.29378813 43.07712966 -31.77153701 40.37521131 -35 37 C-33.63886987 33.95418514 -32.10669904 31.86160974 -29.74365234 29.51660156 C-29.08311859 28.85621887 -28.42258484 28.19583618 -27.74203491 27.51544189 C-27.03052277 26.81425232 -26.31901062 26.11306274 -25.5859375 25.390625 C-24.49147812 24.30041046 -24.49147812 24.30041046 -23.37490845 23.18817139 C-21.0462612 20.87070802 -18.71075174 18.5603005 -16.375 16.25 C-14.79381347 14.67884556 -13.21307875 13.10723629 -11.6328125 11.53515625 C-7.7604331 7.68481347 -3.88239829 3.84023883 0 0 Z " fill="#D9D8DD" transform="translate(122,128)"/>
<path d="M0 0 C10.36395281 -0.37014117 10.36395281 -0.37014117 13.3359375 1.359375 C15 3 15 3 15.375 5.4375 C14.99615037 8.02630579 14.3263279 9.76182166 13 12 C14.65 13.65 16.3 15.3 18 17 C18.33 11.39 18.66 5.78 19 0 C20.98 0 22.96 0 25 0 C25 6.6 25 13.2 25 20 C14.14321064 20.84441695 14.14321064 20.84441695 10.9375 18.4765625 C9.49681201 16.71171971 8.26205859 14.89308788 7 13 C6.34 12.67 5.68 12.34 5 12 C5 14.64 5 17.28 5 20 C3.35 20 1.7 20 0 20 C0 13.4 0 6.8 0 0 Z M5 4 C5 5.32 5 6.64 5 8 C6.65 7.67 8.3 7.34 10 7 C9.67 6.01 9.34 5.02 9 4 C7.68 4 6.36 4 5 4 Z " fill="#4A6B96" transform="translate(459,195)"/>
<path d="M0 0 C2.31 0 4.62 0 7 0 C8.65 3.3 10.3 6.6 12 10 C14.10940904 7.45416151 15.91781757 5.16810043 17.375 2.1875 C17.91125 1.465625 18.4475 0.74375 19 0 C20.98 0 22.96 0 25 0 C25 6.6 25 13.2 25 20 C23.35 20 21.7 20 20 20 C19.67 17.03 19.34 14.06 19 11 C17.68 13.31 16.36 15.62 15 18 C13.02 18 11.04 18 9 18 C8.01 16.02 7.02 14.04 6 12 C5.67 14.64 5.34 17.28 5 20 C3.35 20 1.7 20 0 20 C0 13.4 0 6.8 0 0 Z " fill="#385E8D" transform="translate(257,195)"/>
<path d="M0 0 C2.206875 -0.061875 4.41375 -0.12375 6.6875 -0.1875 C8.54955078 -0.23970703 8.54955078 -0.23970703 10.44921875 -0.29296875 C15.20179198 0.09915775 17.68203836 1.68203836 21 5 C21.62886697 8.07782008 21.61678474 10.92139343 21 14 C18.49786164 17.46887364 15.16864935 19.2674656 11 20 C7.32809948 20.12820882 3.67561979 20.04375738 0 20 C0 13.4 0 6.8 0 0 Z M6 4 C6 7.63 6 11.26 6 15 C7.918125 15.0928125 7.918125 15.0928125 9.875 15.1875 C10.59429687 15.22230469 11.31359375 15.25710937 12.0546875 15.29296875 C12.69664062 15.19628906 13.33859375 15.09960938 14 15 C16.15502531 11.76746204 16.46856135 10.74849077 16 7 C15.04451019 5.04374022 15.04451019 5.04374022 13 4 C9.37464024 3.7496423 9.37464024 3.7496423 6 4 Z " fill="#416592" transform="translate(376,195)"/>
<path d="M0 0 C5 0 5 0 7.45703125 2.1875 C8.23433594 3.115625 9.01164062 4.04375 9.8125 5 C10.60269531 5.928125 11.39289063 6.85625 12.20703125 7.8125 C12.79871094 8.534375 13.39039063 9.25625 14 10 C14.33 6.7 14.66 3.4 15 0 C16.65 0 18.3 0 20 0 C20 6.6 20 13.2 20 20 C15 20 15 20 12.54296875 17.8125 C11.76566406 16.884375 10.98835938 15.95625 10.1875 15 C9.39730469 14.071875 8.60710937 13.14375 7.79296875 12.1875 C6.90544922 11.1046875 6.90544922 11.1046875 6 10 C5.67 13.3 5.34 16.6 5 20 C3.35 20 1.7 20 0 20 C0 13.4 0 6.8 0 0 Z " fill="#446894" transform="translate(353,195)"/>
<path d="M0 0 C1.98 0 3.96 0 6 0 C6 2.31 6 4.62 6 7 C7.98 7 9.96 7 12 7 C12 4.69 12 2.38 12 0 C13.65 0 15.3 0 17 0 C17 6.6 17 13.2 17 20 C15.35 20 13.7 20 12 20 C12 17.03 12 14.06 12 11 C10.02 11 8.04 11 6 11 C6 13.97 6 16.94 6 20 C4.02 20 2.04 20 0 20 C0 13.4 0 6.8 0 0 Z " fill="#476A96" transform="translate(310,195)"/>
<path d="M0 0 C1.65 0 3.3 0 5 0 C6.51012131 2.76543196 8.00630148 5.53816807 9.5 8.3125 C9.92925781 9.09818359 10.35851562 9.88386719 10.80078125 10.69335938 C11.40986328 11.8293457 11.40986328 11.8293457 12.03125 12.98828125 C12.40830078 13.68477783 12.78535156 14.38127441 13.17382812 15.09887695 C14 17 14 17 14 20 C12.35 20 10.7 20 9 20 C8.34 18.35 7.68 16.7 7 15 C5.54052295 15.06006078 4.08220728 15.1488689 2.625 15.25 C1.81289063 15.29640625 1.00078125 15.3428125 0.1640625 15.390625 C-2.18838927 15.7922092 -2.18838927 15.7922092 -3.2890625 18.046875 C-3.52367187 18.69140625 -3.75828125 19.3359375 -4 20 C-5.65 20 -7.3 20 -9 20 C-8.40440894 15.13127946 -6.27522585 11.40671159 -3.9375 7.1875 C-3.56044922 6.49462891 -3.18339844 5.80175781 -2.79492188 5.08789062 C-1.86916148 3.38871015 -0.93537688 1.69390575 0 0 Z M2 7 C1.34 8.32 0.68 9.64 0 11 C1.65 11 3.3 11 5 11 C4.01 9.68 3.02 8.36 2 7 Z " fill="#3F6492" transform="translate(294,195)"/>
<path d="M0 0 C1.65 0 3.3 0 5 0 C5.06058594 0.99902344 5.12117188 1.99804688 5.18359375 3.02734375 C5.26738281 4.31769531 5.35117187 5.60804688 5.4375 6.9375 C5.51871094 8.22527344 5.59992188 9.51304687 5.68359375 10.83984375 C5.64919188 13.86023957 5.64919188 13.86023957 7 15 C8.65 15 10.3 15 12 15 C12.33 10.05 12.66 5.1 13 0 C14.65 0 16.3 0 18 0 C18.13526616 2.5850867 18.23417653 5.16308752 18.3125 7.75 C18.35439453 8.47960937 18.39628906 9.20921875 18.43945312 9.9609375 C18.52734733 13.82828236 18.38045633 15.58352801 15.73046875 18.484375 C13.17942814 19.90040327 11.86283259 20.54617472 9 20.5 C8.0409375 20.51546875 8.0409375 20.51546875 7.0625 20.53125 C3.81915778 19.69584367 2.26017929 18.47413774 0 16 C-0.37233017 13.03327323 -0.4808246 10.68143759 -0.3125 7.75 C-0.28994141 7.00492188 -0.26738281 6.25984375 -0.24414062 5.4921875 C-0.18543561 3.660591 -0.09575757 1.83003347 0 0 Z " fill="#476B95" transform="translate(400,195)"/>
<path d="M0 0 C1.50433594 0.01353516 1.50433594 0.01353516 3.0390625 0.02734375 C3.80992187 0.03894531 4.58078125 0.05054688 5.375 0.0625 C5.375 1.7125 5.375 3.3625 5.375 5.0625 C2.405 4.7325 -0.565 4.4025 -3.625 4.0625 C-3.625 4.7225 -3.625 5.3825 -3.625 6.0625 C-2.7175 6.330625 -1.81 6.59875 -0.875 6.875 C4.21283784 8.73401767 4.21283784 8.73401767 6.375 11.0625 C6.9375 14.0625 6.9375 14.0625 6.375 17.0625 C3.38636879 19.95472375 0.68615723 20.24800553 -3.3125 20.3125 C-5.87037319 20.26091264 -7.32622891 20.21188555 -9.625 19.0625 C-9.625 17.4125 -9.625 15.7625 -9.625 14.0625 C-6.325 14.3925 -3.025 14.7225 0.375 15.0625 C0.705 14.4025 1.035 13.7425 1.375 13.0625 C0.488125 12.835625 -0.39875 12.60875 -1.3125 12.375 C-5.05880532 10.89061487 -6.96229434 9.03846515 -9.625 6.0625 C-7.52003996 0.19868275 -6.0947024 -0.07086863 0 0 Z " fill="#3F6490" transform="translate(429.625,194.9375)"/>
<path d="M0 0 C11.36343937 -0.49406258 11.36343937 -0.49406258 14.390625 1.85546875 C16 4 16 4 16 6.5625 C14.77173865 9.55638704 13.87642235 10.52291825 11 12 C7.75 12.1875 7.75 12.1875 5 12 C5 14.64 5 17.28 5 20 C3.35 20 1.7 20 0 20 C0 13.4 0 6.8 0 0 Z M5 4 C5 5.65 5 7.3 5 9 C6.65 8.67 8.3 8.34 10 8 C10 6.68 10 5.36 10 4 C8.35 4 6.7 4 5 4 Z " fill="#496B97" transform="translate(176,195)"/>
<path d="M0 0 C7.26 0 14.52 0 22 0 C22 1.32 22 2.64 22 4 C19.03 4 16.06 4 13 4 C13.08378906 5.07121094 13.16757812 6.14242187 13.25390625 7.24609375 C13.35704896 8.64320866 13.45989843 10.04034524 13.5625 11.4375 C13.61857422 12.14455078 13.67464844 12.85160156 13.73242188 13.58007812 C13.86190993 15.38427837 13.93521608 17.19231952 14 19 C13.67 19.33 13.34 19.66 13 20 C11.35 20 9.7 20 8 20 C8 14.72 8 9.44 8 4 C5.36 4 2.72 4 0 4 C0 2.68 0 1.36 0 0 Z " fill="#325A8A" transform="translate(436,195)"/>
<path d="M0 0 C5.94 0 11.88 0 18 0 C17.67 1.32 17.34 2.64 17 4 C15.35 4.33 13.7 4.66 12 5 C12 9.95 12 14.9 12 20 C10.02 20 8.04 20 6 20 C6 14.72 6 9.44 6 4 C4.02 4 2.04 4 0 4 C0 2.68 0 1.36 0 0 Z " fill="#32598A" transform="translate(226,195)"/>
<path d="M0 0 C5.61 0 11.22 0 17 0 C17 1.32 17 2.64 17 4 C15.02 4 13.04 4 11 4 C11 9.28 11 14.56 11 20 C9.35 20 7.7 20 6 20 C6 14.72 6 9.44 6 4 C4.02 4 2.04 4 0 4 C0 2.68 0 1.36 0 0 Z " fill="#57769D" transform="translate(194,195)"/>
<path d="M0 0 C10.625 -0.25 10.625 -0.25 14 2 C14 2.99 14 3.98 14 5 C11.03 4.67 8.06 4.34 5 4 C5.33 6.31 5.66 8.62 6 11 C5.34 11 4.68 11 4 11 C4 13.64 4 16.28 4 19 C2.68 18.67 1.36 18.34 0 18 C0 12.06 0 6.12 0 0 Z " fill="#2C5586" transform="translate(459,195)"/>
<path d="M0 0 C1.65 0 3.3 0 5 0 C5 6.6 5 13.2 5 20 C3.35 20 1.7 20 0 20 C0 13.4 0 6.8 0 0 Z " fill="#2D5587" transform="translate(344,195)"/>
<path d="M0 0 C1.65 0 3.3 0 5 0 C5 6.6 5 13.2 5 20 C3.35 20 1.7 20 0 20 C0 13.4 0 6.8 0 0 Z " fill="#2D5587" transform="translate(246,195)"/>
<path d="M0 0 C3.3 0 6.6 0 10 0 C9.01 1.485 9.01 1.485 8 3 C6.68 3 5.36 3 4 3 C4 7.29 4 11.58 4 16 C6.31 16 8.62 16 11 16 C10.34 16.66 9.68 17.32 9 18 C6.03 18 3.06 18 0 18 C0 12.06 0 6.12 0 0 Z " fill="#234D82" transform="translate(377,196)"/>
<path d="M0 0 C1.32 0 2.64 0 4 0 C4.33 1.98 4.66 3.96 5 6 C6.98 6 8.96 6 11 6 C11.33 6.99 11.66 7.98 12 9 C9.36 9 6.72 9 4 9 C4 11.97 4 14.94 4 18 C2.68 18 1.36 18 0 18 C0 12.06 0 6.12 0 0 Z " fill="#224C81" transform="translate(311,196)"/>
<path d="M0 0 C0.33 0 0.66 0 1 0 C1.15266459 2.74796255 1.24574881 4.537414 -0.0625 7 C-1.30742555 9.65584118 -0.76786849 11.23567345 0 14 C-4.31392226 13.5206753 -6.16569547 12.2542015 -9 9 C-9 11.64 -9 14.28 -9 17 C-10.65 17 -12.3 17 -14 17 C-13.67 16.34 -13.34 15.68 -13 15 C-12.01 15.33 -11.02 15.66 -10 16 C-10 13.36 -10 10.72 -10 8 C-9.34 8 -8.68 8 -8 8 C-8 7.01 -8 6.02 -8 5 C-7.01 4.67 -6.02 4.34 -5 4 C-5 3.01 -5 2.02 -5 1 C-3.35 1.33 -1.7 1.66 0 2 C0 1.34 0 0.68 0 0 Z " fill="#416591" transform="translate(473,198)"/>
<path d="M0 0 C3.63 0 7.26 0 11 0 C11 0.33 11 0.66 11 1 C7.7 1 4.4 1 1 1 C1 6.94 1 12.88 1 19 C3.97 18.67 6.94 18.34 10 18 C8.35 17.67 6.7 17.34 5 17 C5 12.71 5 8.42 5 4 C5.33 4 5.66 4 6 4 C6 7.63 6 11.26 6 15 C9.3 14.67 12.6 14.34 16 14 C15.67 15.65 15.34 17.3 15 19 C10.05392242 20.49559965 5.12641556 20.06102876 0 20 C0 13.4 0 6.8 0 0 Z " fill="#617DA5" transform="translate(376,195)"/>
<path d="M0 0 C1.23556641 0.01740234 1.23556641 0.01740234 2.49609375 0.03515625 C3.32238281 0.04417969 4.14867187 0.05320313 5 0.0625 C5.63808594 0.07410156 6.27617187 0.08570313 6.93359375 0.09765625 C6.93359375 1.08765625 6.93359375 2.07765625 6.93359375 3.09765625 C4.95359375 3.09765625 2.97359375 3.09765625 0.93359375 3.09765625 C0.60359375 8.04765625 0.27359375 12.99765625 -0.06640625 18.09765625 C-1.05640625 18.09765625 -2.04640625 18.09765625 -3.06640625 18.09765625 C-3.09324937 15.28509344 -3.11316813 12.47278384 -3.12890625 9.66015625 C-3.13728516 8.85771484 -3.14566406 8.05527344 -3.15429688 7.22851562 C-3.16292055 5.18470404 -3.11868775 3.14081723 -3.06640625 1.09765625 C-2.06640625 0.09765625 -2.06640625 0.09765625 0 0 Z " fill="#1E4A7F" transform="translate(204.06640625,195.90234375)"/>
<path d="M0 0 C1.32 0 2.64 0 4 0 C4 5.61 4 11.22 4 17 C2.68 17 1.36 17 0 17 C0 11.39 0 5.78 0 0 Z " fill="#214B81" transform="translate(479,196)"/>
<path d="M0 0 C1.45945288 0.08708669 2.91765868 0.19526907 4.375 0.3125 C5.59316406 0.39951172 5.59316406 0.39951172 6.8359375 0.48828125 C9 1 9 1 11 4 C7.7 4 4.4 4 1 4 C0.67 5.98 0.34 7.96 0 10 C-1.65 10 -3.3 10 -5 10 C-4.125 5.25 -4.125 5.25 -3 3 C-2.01 3 -1.02 3 0 3 C0 2.01 0 1.02 0 0 Z " fill="#365D8D" transform="translate(290,205)"/>
<path d="M0 0 C1.65 0.33 3.3 0.66 5 1 C3.80100302 4.0831351 2.52299523 7.06279492 1 10 C-0.98 10 -2.96 10 -5 10 C-5.625 7.6875 -5.625 7.6875 -6 5 C-5.34 4.01 -4.68 3.02 -4 2 C-3.01 2 -2.02 2 -1 2 C-0.67 1.34 -0.34 0.68 0 0 Z " fill="#456995" transform="translate(271,203)"/>
<path d="M0 0 C3 1 3 1 4.6875 3.875 C6 7 6 7 6 10 C4.35 10 2.7 10 1 10 C0.34 8.35 -0.32 6.7 -1 5 C-4.3 5.33 -7.6 5.66 -11 6 C-11 5.34 -11 4.68 -11 4 C-10.37351562 3.96261719 -9.74703125 3.92523438 -9.1015625 3.88671875 C-8.28429687 3.82097656 -7.46703125 3.75523437 -6.625 3.6875 C-5.81289063 3.62949219 -5.00078125 3.57148438 -4.1640625 3.51171875 C-1.62078662 3.17009472 -1.62078662 3.17009472 0 0 Z " fill="#50719B" transform="translate(302,205)"/>
<path d="M0 0 C0.99 0 1.98 0 3 0 C3 2.97 3 5.94 3 9 C4.98 9 6.96 9 9 9 C6 11 6 11 3 11 C3 12.98 3 14.96 3 17 C2.01 17 1.02 17 0 17 C0 11.39 0 5.78 0 0 Z " fill="#1B477D" transform="translate(177,196)"/>
<path d="M0 0 C0.99 0 1.98 0 3 0 C3.33 4.62 3.66 9.24 4 14 C6.31 14.66 8.62 15.32 11 16 C11 16.33 11 16.66 11 17 C9.741875 17.020625 8.48375 17.04125 7.1875 17.0625 C6.47980469 17.07410156 5.77210938 17.08570313 5.04296875 17.09765625 C3 17 3 17 0 16 C0 10.72 0 5.44 0 0 Z " fill="#1C487E" transform="translate(401,196)"/>
<path d="M0 0 C1.32 1.32 2.64 2.64 4 4 C3.31035156 4.0309375 2.62070312 4.061875 1.91015625 4.09375 C-2.35833053 5.42299689 -4.58250137 8.26966777 -7.5625 11.5 C-8.68152847 12.70471408 -9.80760575 13.90292795 -10.94140625 15.09375 C-11.43326416 15.62677734 -11.92512207 16.15980469 -12.43188477 16.70898438 C-14.25148082 18.20704197 -15.70051524 18.59528572 -18 19 C-12.44964797 12.21623641 -6.23557973 6.14477032 0 0 Z " fill="#385E8C" transform="translate(31,116)"/>
<path d="M0 0 C0.66 0.33 1.32 0.66 2 1 C2.02685095 3.47923801 2.04676547 5.9581884 2.0625 8.4375 C2.07087891 9.14455078 2.07925781 9.85160156 2.08789062 10.58007812 C2.09653588 12.38693559 2.05220011 14.19387603 2 16 C1.67 16.33 1.34 16.66 1 17 C-0.65 17 -2.3 17 -4 17 C-4 11.72 -4 6.44 -4 1 C-3.67 1 -3.34 1 -3 1 C-3 5.62 -3 10.24 -3 15 C-2.01 15 -1.02 15 0 15 C0 10.05 0 5.1 0 0 Z " fill="#5D7CA2" transform="translate(448,198)"/>
<path d="M0 0 C3.63 0 7.26 0 11 0 C11 1.65 11 3.3 11 5 C8.03 4.67 5.06 4.34 2 4 C1.67 4.66 1.34 5.32 1 6 C1 5.01 1 4.02 1 3 C1.66 3 2.32 3 3 3 C3 2.34 3 1.68 3 1 C2.01 0.67 1.02 0.34 0 0 Z " fill="#486B96" transform="translate(424,195)"/>
<path d="M0 0 C5.61 0 11.22 0 17 0 C17 0.33 17 0.66 17 1 C16.07767578 1.07347656 16.07767578 1.07347656 15.13671875 1.1484375 C14.32847656 1.22320312 13.52023438 1.29796875 12.6875 1.375 C11.48673828 1.47941406 11.48673828 1.47941406 10.26171875 1.5859375 C7.72775559 1.89564426 7.72775559 1.89564426 5 4 C2.3125 4.125 2.3125 4.125 0 4 C0 2.68 0 1.36 0 0 Z " fill="#4E709A" transform="translate(194,195)"/>
<path d="M0 0 C2.475 0.99 2.475 0.99 5 2 C4.01 3.98 3.02 5.96 2 8 C0.68 7.34 -0.64 6.68 -2 6 C-2 6.99 -2 7.98 -2 9 C-2.66 9 -3.32 9 -4 9 C-2.94124926 5.59687262 -1.99097846 2.98646769 0 0 Z " fill="#51739C" transform="translate(292,199)"/>
<path d="M0 0 C0.33 0 0.66 0 1 0 C1 3.63 1 7.26 1 11 C4.3 10.67 7.6 10.34 11 10 C10.34 11.32 9.68 12.64 9 14 C6.03 13.67 3.06 13.34 0 13 C0 8.71 0 4.42 0 0 Z " fill="#6D88AB" transform="translate(381,199)"/>
<path d="M0 0 C0.99 0.33 1.98 0.66 3 1 C2.43410156 1.54269531 1.86820313 2.08539063 1.28515625 2.64453125 C0.55167969 3.35996094 -0.18179688 4.07539062 -0.9375 4.8125 C-1.66839844 5.52019531 -2.39929688 6.22789063 -3.15234375 6.95703125 C-5.20834646 8.95536163 -5.20834646 8.95536163 -6 12 C-6.66 10.68 -7.32 9.36 -8 8 C-5.36 5.36 -2.72 2.72 0 0 Z " fill="#C8CCD4" transform="translate(80,86)"/>
<path d="M0 0 C0.99 0 1.98 0 3 0 C3 3.3 3 6.6 3 10 C2.01 10.33 1.02 10.66 0 11 C0 7.37 0 3.74 0 0 Z " fill="#1C487E" transform="translate(368,196)"/>
<path d="M0 0 C2.97 0 5.94 0 9 0 C8.67 0.99 8.34 1.98 8 3 C5.36 3 2.72 3 0 3 C0 2.01 0 1.02 0 0 Z " fill="#204B81" transform="translate(226,196)"/>
<path d="M0 0 C0.33 0.99 0.66 1.98 1 3 C-0.8125 5 -0.8125 5 -3 7 C-3.99 7 -4.98 7 -6 7 C-5.67 5.02 -5.34 3.04 -5 1 C-3.35 1.33 -1.7 1.66 0 2 C0 1.34 0 0.68 0 0 Z " fill="#466995" transform="translate(396,206)"/>
<path d="M0 0 C1.98 0.66 3.96 1.32 6 2 C5.34 2.66 4.68 3.32 4 4 C4.33 4.66 4.66 5.32 5 6 C3.35 5.67 1.7 5.34 0 5 C0 3.35 0 1.7 0 0 Z " fill="#507199" transform="translate(420,209)"/>
<path d="M0 0 C1.4540625 0.0309375 1.4540625 0.0309375 2.9375 0.0625 C3.2675 1.0525 3.5975 2.0425 3.9375 3.0625 C1.0625 3.1875 1.0625 3.1875 -2.0625 3.0625 C-2.7225 2.4025 -3.3825 1.7425 -4.0625 1.0625 C-3.0625 0.0625 -3.0625 0.0625 0 0 Z " fill="#325989" transform="translate(427.0625,211.9375)"/>
<path d="M0 0 C1.0625 1.8125 1.0625 1.8125 2 4 C1.67 4.99 1.34 5.98 1 7 C-0.32 6.67 -1.64 6.34 -3 6 C-2.625 3.5625 -2.625 3.5625 -2 1 C-1.34 0.67 -0.68 0.34 0 0 Z " fill="#1C487E" transform="translate(395,201)"/>
<path d="M0 0 C1.47177418 3.82661288 0.57016757 6.31010622 -1 10 C-1.96715918 11.03179606 -2.96225307 12.0392288 -4 13 C-3.52140759 11.39566191 -3.04210442 9.79153584 -2.5625 8.1875 C-2.29566406 7.29417969 -2.02882813 6.40085938 -1.75390625 5.48046875 C-1.19612127 3.64526945 -0.60655425 1.81966274 0 0 Z " fill="#607EA4" transform="translate(356,146)"/>
<path d="M0 0 C2 1.375 2 1.375 4 3 C4 3.66 4 4.32 4 5 C2.02 5 0.04 5 -2 5 C-2.33 4.34 -2.66 3.68 -3 3 C-2.01 3 -1.02 3 0 3 C0 2.01 0 1.02 0 0 Z " fill="#4C6E97" transform="translate(473,209)"/>
</svg>
